<svg width="180" height="29" viewBox="0 0 180 29" fill="none" xmlns="http://www.w3.org/2000/svg">
<g clip-path="url(#clip0)">
<path d="M27.927 10.7407C27.7437 10.1737 27.2408 9.77105 26.6459 9.71743L18.5643 8.98361L15.3686 1.50384C15.133 0.955667 14.5964 0.60083 14.0001 0.60083C13.4039 0.60083 12.8673 0.955667 12.6316 1.50512L9.43597 8.98361L1.35312 9.71743C0.759232 9.77233 0.257633 10.1737 0.0732711 10.7407C-0.11109 11.3077 0.0591716 11.9295 0.508432 12.3216L6.61714 17.6789L4.81582 25.6137C4.68402 26.1972 4.91046 26.8002 5.39454 27.1502C5.65474 27.3381 5.95917 27.4339 6.26615 27.4339C6.53084 27.4339 6.79338 27.3625 7.02902 27.2215L14.0001 23.0551L20.9687 27.2215C21.4786 27.5283 22.1214 27.5003 22.6045 27.1502C23.0888 26.7992 23.315 26.1959 23.1832 25.6137L21.3819 17.6789L27.4906 12.3226C27.9398 11.9295 28.1114 11.3087 27.927 10.7407V10.7407Z" fill="#FFC107"/>
</g>
<g clip-path="url(#clip1)">
<path d="M65.927 10.7407C65.7437 10.1737 65.2408 9.77105 64.6459 9.71743L56.5643 8.98361L53.3686 1.50384C53.133 0.955667 52.5964 0.60083 52.0001 0.60083C51.4039 0.60083 50.8673 0.955667 50.6316 1.50512L47.436 8.98361L39.3531 9.71743C38.7592 9.77233 38.2576 10.1737 38.0733 10.7407C37.8889 11.3077 38.0592 11.9295 38.5084 12.3216L44.6171 17.6789L42.8158 25.6137C42.684 26.1972 42.9105 26.8002 43.3945 27.1502C43.6547 27.3381 43.9592 27.4339 44.2661 27.4339C44.5308 27.4339 44.7934 27.3625 45.029 27.2215L52.0001 23.0551L58.9687 27.2215C59.4786 27.5283 60.1214 27.5003 60.6045 27.1502C61.0888 26.7992 61.315 26.1959 61.1832 25.6137L59.3819 17.6789L65.4906 12.3226C65.9398 11.9295 66.1114 11.3087 65.927 10.7407V10.7407Z" fill="#FFC107"/>
</g>
<g clip-path="url(#clip2)">
<path d="M103.927 10.7407C103.744 10.1737 103.241 9.77105 102.646 9.71743L94.5643 8.98361L91.3686 1.50384C91.133 0.955667 90.5964 0.60083 90.0001 0.60083C89.4039 0.60083 88.8673 0.955667 88.6316 1.50512L85.436 8.98361L77.3531 9.71743C76.7592 9.77233 76.2576 10.1737 76.0733 10.7407C75.8889 11.3077 76.0592 11.9295 76.5084 12.3216L82.6171 17.6789L80.8158 25.6137C80.684 26.1972 80.9105 26.8002 81.3945 27.1502C81.6547 27.3381 81.9592 27.4339 82.2661 27.4339C82.5308 27.4339 82.7934 27.3625 83.029 27.2215L90.0001 23.0551L96.9687 27.2215C97.4786 27.5283 98.1214 27.5003 98.6045 27.1502C99.0888 26.7992 99.315 26.1959 99.1832 25.6137L97.3819 17.6789L103.491 12.3226C103.94 11.9295 104.111 11.3087 103.927 10.7407V10.7407Z" fill="#FFC107"/>
</g>
<g clip-path="url(#clip3)">
<path d="M179.927 10.7407C179.744 10.1737 179.241 9.77105 178.646 9.71743L170.564 8.98361L167.369 1.50384C167.133 0.955667 166.596 0.60083 166 0.60083C165.404 0.60083 164.867 0.955667 164.632 1.50512L161.436 8.98361L153.353 9.71743C152.759 9.77233 152.258 10.1737 152.073 10.7407C151.889 11.3077 152.059 11.9295 152.508 12.3216L158.617 17.6789L156.816 25.6137C156.684 26.1972 156.91 26.8002 157.395 27.1502C157.655 27.3381 157.959 27.4339 158.266 27.4339C158.531 27.4339 158.793 27.3625 159.029 27.2215L166 23.0551L172.969 27.2215C173.479 27.5283 174.121 27.5003 174.604 27.1502C175.089 26.7992 175.315 26.1959 175.183 25.6137L173.382 17.6789L179.491 12.3226C179.94 11.9295 180.111 11.3087 179.927 10.7407V10.7407Z" fill="#FFC107"/>
</g>
<g clip-path="url(#clip4)">
<path d="M141.927 11.7407C141.744 11.1737 141.241 10.771 140.646 10.7174L132.564 9.98361L129.369 2.50384C129.133 1.95567 128.596 1.60083 128 1.60083C127.404 1.60083 126.867 1.95567 126.632 2.50512L123.436 9.98361L115.353 10.7174C114.759 10.7723 114.258 11.1737 114.073 11.7407C113.889 12.3077 114.059 12.9295 114.508 13.3216L120.617 18.6789L118.816 26.6137C118.684 27.1972 118.91 27.8002 119.395 28.1502C119.655 28.3381 119.959 28.4339 120.266 28.4339C120.531 28.4339 120.793 28.3625 121.029 28.2215L128 24.0551L134.969 28.2215C135.479 28.5283 136.121 28.5003 136.604 28.1502C137.089 27.7992 137.315 27.1959 137.183 26.6137L135.382 18.6789L141.491 13.3226C141.94 12.9295 142.111 12.3087 141.927 11.7407V11.7407Z" fill="#FFC107"/>
</g>
<defs>
<clipPath id="clip0">
<rect width="28" height="28" fill="white"/>
</clipPath>
<clipPath id="clip1">
<rect width="28" height="28" fill="white" transform="translate(38)"/>
</clipPath>
<clipPath id="clip2">
<rect width="28" height="28" fill="white" transform="translate(76)"/>
</clipPath>
<clipPath id="clip3">
<rect width="28" height="28" fill="white" transform="translate(152)"/>
</clipPath>
<clipPath id="clip4">
<rect width="28" height="28" fill="white" transform="translate(114 1)"/>
</clipPath>
</defs>
</svg>
