<svg width="113" height="26" viewBox="0 0 113 26" fill="none" xmlns="http://www.w3.org/2000/svg">
<path d="M0.825 10.2C0.825 8.46667 1.2 6.925 1.95 5.575C2.7 4.20833 3.74167 3.15 5.075 2.4C6.425 1.63333 7.95 1.25 9.65 1.25C11.7333 1.25 13.5167 1.8 15 2.9C16.4833 4 17.475 5.5 17.975 7.4H13.275C12.925 6.66667 12.425 6.10833 11.775 5.725C11.1417 5.34167 10.4167 5.15 9.6 5.15C8.28333 5.15 7.21667 5.60833 6.4 6.525C5.58333 7.44167 5.175 8.66667 5.175 10.2C5.175 11.7333 5.58333 12.9583 6.4 13.875C7.21667 14.7917 8.28333 15.25 9.6 15.25C10.4167 15.25 11.1417 15.0583 11.775 14.675C12.425 14.2917 12.925 13.7333 13.275 13H17.975C17.475 14.9 16.4833 16.4 15 17.5C13.5167 18.5833 11.7333 19.125 9.65 19.125C7.95 19.125 6.425 18.75 5.075 18C3.74167 17.2333 2.7 16.175 1.95 14.825C1.2 13.475 0.825 11.9333 0.825 10.2ZM29.168 4.9C30.768 4.9 32.0513 5.43333 33.018 6.5C33.9846 7.55 34.468 9 34.468 10.85V19H30.218V11.425C30.218 10.4917 29.9763 9.76667 29.493 9.25C29.0096 8.73333 28.3596 8.475 27.543 8.475C26.7263 8.475 26.0763 8.73333 25.593 9.25C25.1096 9.76667 24.868 10.4917 24.868 11.425V19H20.593V0.5H24.868V6.925C25.3013 6.30833 25.893 5.81667 26.643 5.45C27.393 5.08333 28.2346 4.9 29.168 4.9ZM36.5887 12C36.5887 10.5667 36.8553 9.30833 37.3887 8.225C37.9387 7.14167 38.6803 6.30833 39.6137 5.725C40.547 5.14167 41.5887 4.85 42.7387 4.85C43.722 4.85 44.5803 5.05 45.3137 5.45C46.0637 5.85 46.6387 6.375 47.0387 7.025V5.05H51.3137V19H47.0387V17.025C46.622 17.675 46.0387 18.2 45.2887 18.6C44.5553 19 43.697 19.2 42.7137 19.2C41.5803 19.2 40.547 18.9083 39.6137 18.325C38.6803 17.725 37.9387 16.8833 37.3887 15.8C36.8553 14.7 36.5887 13.4333 36.5887 12ZM47.0387 12.025C47.0387 10.9583 46.7387 10.1167 46.1387 9.5C45.5553 8.88333 44.8387 8.575 43.9887 8.575C43.1387 8.575 42.4137 8.88333 41.8137 9.5C41.2303 10.1 40.9387 10.9333 40.9387 12C40.9387 13.0667 41.2303 13.9167 41.8137 14.55C42.4137 15.1667 43.1387 15.475 43.9887 15.475C44.8387 15.475 45.5553 15.1667 46.1387 14.55C46.7387 13.9333 47.0387 13.0917 47.0387 12.025ZM62.1814 15.375V19H60.0064C58.4564 19 57.2481 18.625 56.3814 17.875C55.5148 17.1083 55.0814 15.8667 55.0814 14.15V8.6H53.3814V5.05H55.0814V1.65H59.3564V5.05H62.1564V8.6H59.3564V14.2C59.3564 14.6167 59.4564 14.9167 59.6564 15.1C59.8564 15.2833 60.1898 15.375 60.6564 15.375H62.1814Z" fill="#1F6EFD"/>
<path d="M63.9377 12.05C63.9377 10.6667 64.221 9.44167 64.7877 8.375C65.371 7.30833 66.1544 6.48333 67.1377 5.9C68.1377 5.3 69.2377 5 70.4377 5C71.521 5 72.4627 5.21667 73.2627 5.65C74.0794 6.06667 74.7294 6.59167 75.2127 7.225V5.225H78.0877V19H75.2127V16.95C74.7294 17.6 74.071 18.1417 73.2377 18.575C72.4044 19.0083 71.4544 19.225 70.3877 19.225C69.2044 19.225 68.121 18.925 67.1377 18.325C66.1544 17.7083 65.371 16.8583 64.7877 15.775C64.221 14.675 63.9377 13.4333 63.9377 12.05ZM75.2127 12.1C75.2127 11.15 75.0127 10.325 74.6127 9.625C74.2294 8.925 73.721 8.39167 73.0877 8.025C72.4544 7.65833 71.771 7.475 71.0377 7.475C70.3044 7.475 69.621 7.65833 68.9877 8.025C68.3544 8.375 67.8377 8.9 67.4377 9.6C67.0544 10.2833 66.8627 11.1 66.8627 12.05C66.8627 13 67.0544 13.8333 67.4377 14.55C67.8377 15.2667 68.3544 15.8167 68.9877 16.2C69.6377 16.5667 70.321 16.75 71.0377 16.75C71.771 16.75 72.4544 16.5667 73.0877 16.2C73.721 15.8333 74.2294 15.3 74.6127 14.6C75.0127 13.8833 75.2127 13.05 75.2127 12.1ZM84.6811 7.25C85.1644 6.61667 85.8227 6.08333 86.6561 5.65C87.4894 5.21667 88.4311 5 89.4811 5C90.6811 5 91.7727 5.3 92.7561 5.9C93.7561 6.48333 94.5394 7.30833 95.1061 8.375C95.6727 9.44167 95.9561 10.6667 95.9561 12.05C95.9561 13.4333 95.6727 14.675 95.1061 15.775C94.5394 16.8583 93.7561 17.7083 92.7561 18.325C91.7727 18.925 90.6811 19.225 89.4811 19.225C88.4311 19.225 87.4977 19.0167 86.6811 18.6C85.8644 18.1667 85.1977 17.6333 84.6811 17V25.55H81.8311V5.225H84.6811V7.25ZM93.0561 12.05C93.0561 11.1 92.8561 10.2833 92.4561 9.6C92.0727 8.9 91.5561 8.375 90.9061 8.025C90.2727 7.65833 89.5894 7.475 88.8561 7.475C88.1394 7.475 87.4561 7.65833 86.8061 8.025C86.1727 8.39167 85.6561 8.925 85.2561 9.625C84.8727 10.325 84.6811 11.15 84.6811 12.1C84.6811 13.05 84.8727 13.8833 85.2561 14.6C85.6561 15.3 86.1727 15.8333 86.8061 16.2C87.4561 16.5667 88.1394 16.75 88.8561 16.75C89.5894 16.75 90.2727 16.5667 90.9061 16.2C91.5561 15.8167 92.0727 15.2667 92.4561 14.55C92.8561 13.8333 93.0561 13 93.0561 12.05ZM101.624 7.25C102.108 6.61667 102.766 6.08333 103.599 5.65C104.433 5.21667 105.374 5 106.424 5C107.624 5 108.716 5.3 109.699 5.9C110.699 6.48333 111.483 7.30833 112.049 8.375C112.616 9.44167 112.899 10.6667 112.899 12.05C112.899 13.4333 112.616 14.675 112.049 15.775C111.483 16.8583 110.699 17.7083 109.699 18.325C108.716 18.925 107.624 19.225 106.424 19.225C105.374 19.225 104.441 19.0167 103.624 18.6C102.808 18.1667 102.141 17.6333 101.624 17V25.55H98.7744V5.225H101.624V7.25ZM109.999 12.05C109.999 11.1 109.799 10.2833 109.399 9.6C109.016 8.9 108.499 8.375 107.849 8.025C107.216 7.65833 106.533 7.475 105.799 7.475C105.083 7.475 104.399 7.65833 103.749 8.025C103.116 8.39167 102.599 8.925 102.199 9.625C101.816 10.325 101.624 11.15 101.624 12.1C101.624 13.05 101.816 13.8833 102.199 14.6C102.599 15.3 103.116 15.8333 103.749 16.2C104.399 16.5667 105.083 16.75 105.799 16.75C106.533 16.75 107.216 16.5667 107.849 16.2C108.499 15.8167 109.016 15.2667 109.399 14.55C109.799 13.8333 109.999 13 109.999 12.05Z" fill="#0C0000"/>
</svg>
